# xmcd
#
# Track frame offsets: 
#        150
#        25200
#        36500
#        51280
#        67865
#        81360
#        95528
#        101023
#        120163
#        132538
#        149418
#        164868
#        178128
#        196738
#        211368
#        227715
#        246773
#
# Disc length: 3508 seconds
#
# Revision: 0
# Processed by: cddbd v1.5.2PL0 Copyright (c) Steve Scherf et al.
# Submitted via: ExactAudioCopyFreeDBPlugin 1.0
#
DISCID=f80db211
DTITLE=Толкунова Валентина - Толкунова Валентина Сборник
DYEAR=1900
DGENRE=Folk
TTITLE0=Уголок России
TTITLE1=Стою на полустанке
TTITLE2=Где ты раньше был
TTITLE3=Серебрянные свадьбы
TTITLE4=Я не могу иначе
TTITLE5=Носики -курносики
TTITLE6=Кабы не было Земы
TTITLE7=Песенка без конца
TTITLE8=Деревянные лошадки
TTITLE9=Серёжа
TTITLE10=Жалейка
TTITLE11=Сорок пять
TTITLE12=Снегопад
TTITLE13=Если б не было войны
TTITLE14=Сон-трава
TTITLE15=Диалог у Новогодней Ёлки
TTITLE16=Старые слова
EXTD=
EXTT0=
EXTT1=
EXTT2=
EXTT3=
EXTT4=
EXTT5=
EXTT6=
EXTT7=
EXTT8=
EXTT9=
EXTT10=
EXTT11=
EXTT12=
EXTT13=
EXTT14=
EXTT15=
EXTT16=
PLAYORDER=
